# xmcd CD database file
#
# Track frame offsets:
#	150
#	12886
#	23827
#	37199
#	50889
#	65065
#	79959
#	93635
#	113541
#	130277
#	144588
#	165151
#	178878
#	197986
#	210810
#	224536
#	248153
#
# Disc length: 3578 seconds
#
# Revision: 0
# Processed by: cddbd v1.5.2PL0 Copyright (c) Steve Scherf et al.
# Submitted via: CDex 1.70beta2
#
DISCID=f90df811
DTITLE=Henry, Paul - Cdn. OVM - Cty - The Men of No Tomorrows
DYEAR=1900
DGENRE=Country
TTITLE0=King of the Ottawa City Cowboys
TTITLE1=I'll Be Gone
TTITLE2=She's Gone
TTITLE3=Real Minin' Blues
TTITLE4=Death of the New York Central
TTITLE5=Go To Sleep My Little Son
TTITLE6=The JOHNNY CASH Song
TTITLE7=Princess Maggie of the North
TTITLE8=Men of No Tomorrows
TTITLE9=She's Gone - #1
TTITLE10=The Car Song
TTITLE11=Ottawa Valley Song
TTITLE12=The Freedom Song
TTITLE13=For You My Love
TTITLE14=My Canada
TTITLE15=Warm Vancouver Rains
TTITLE16=Marijuanna Blues
EXTD=
EXTT0=
EXTT1=
EXTT2=
EXTT3=
EXTT4=
EXTT5=
EXTT6=
EXTT7=
EXTT8=
EXTT9=
EXTT10=
EXTT11=
EXTT12=
EXTT13=
EXTT14=
EXTT15=
EXTT16=
PLAYORDER=
